<svg width="94" height="35" viewBox="0 0 94 35" fill="none" xmlns="http://www.w3.org/2000/svg">
<path d="M5.26569 19.7812V22.1641H4.09381V19.7812H5.26569ZM5.12506 32.5391V34.625H3.961V32.5391H5.12506ZM6.68756 30.0703C6.68756 29.7578 6.61725 29.4766 6.47662 29.2266C6.336 28.9766 6.10423 28.7474 5.78131 28.5391C5.45839 28.3307 5.0261 28.138 4.48444 27.9609C3.82819 27.7578 3.26048 27.5104 2.78131 27.2188C2.30735 26.9271 1.94017 26.5651 1.67975 26.1328C1.42454 25.7005 1.29694 25.1771 1.29694 24.5625C1.29694 23.9219 1.43496 23.3698 1.711 22.9062C1.98704 22.4427 2.37767 22.0859 2.88287 21.8359C3.38808 21.5859 3.98183 21.4609 4.66412 21.4609C5.19537 21.4609 5.66933 21.5417 6.086 21.7031C6.50267 21.8594 6.85423 22.0938 7.14069 22.4062C7.43235 22.7188 7.65371 23.1016 7.80475 23.5547C7.961 24.0078 8.03912 24.5312 8.03912 25.125H6.60162C6.60162 24.776 6.55996 24.4557 6.47662 24.1641C6.39329 23.8724 6.26829 23.6198 6.10162 23.4062C5.93496 23.1875 5.73183 23.0208 5.49225 22.9062C5.25267 22.7865 4.97662 22.7266 4.66412 22.7266C4.22662 22.7266 3.86464 22.8021 3.57819 22.9531C3.29694 23.1042 3.0886 23.3177 2.95319 23.5938C2.81777 23.8646 2.75006 24.1797 2.75006 24.5391C2.75006 24.8724 2.81777 25.1641 2.95319 25.4141C3.0886 25.6641 3.31777 25.8906 3.64069 26.0938C3.96881 26.2917 4.41933 26.487 4.99225 26.6797C5.66412 26.8932 6.23444 27.1458 6.70319 27.4375C7.17194 27.724 7.52871 28.0781 7.7735 28.5C8.01829 28.9167 8.14069 29.4349 8.14069 30.0547C8.14069 30.7266 7.98964 31.2943 7.68756 31.7578C7.38548 32.2161 6.961 32.5651 6.41412 32.8047C5.86725 33.0443 5.22662 33.1641 4.49225 33.1641C4.04954 33.1641 3.61204 33.1042 3.17975 32.9844C2.74746 32.8646 2.35683 32.6693 2.00787 32.3984C1.65892 32.1224 1.38027 31.7604 1.17194 31.3125C0.963603 30.8594 0.859436 30.3047 0.859436 29.6484H2.31256C2.31256 30.0911 2.37506 30.4583 2.50006 30.75C2.63027 31.0365 2.80214 31.2656 3.01569 31.4375C3.22923 31.6042 3.4636 31.724 3.71881 31.7969C3.97923 31.8646 4.23704 31.8984 4.49225 31.8984C4.961 31.8984 5.35683 31.8255 5.67975 31.6797C6.00787 31.5286 6.25787 31.3151 6.42975 31.0391C6.60162 30.763 6.68756 30.4401 6.68756 30.0703ZM16.0235 26.6016H17.0547C17.56 26.6016 17.9766 26.5182 18.3047 26.3516C18.6381 26.1797 18.8855 25.9479 19.0469 25.6562C19.2136 25.3594 19.2969 25.026 19.2969 24.6562C19.2969 24.2188 19.224 23.8516 19.0782 23.5547C18.9324 23.2578 18.7136 23.0339 18.4219 22.8828C18.1303 22.7318 17.7605 22.6562 17.3126 22.6562C16.9063 22.6562 16.5469 22.737 16.2344 22.8984C15.9271 23.0547 15.685 23.2786 15.5079 23.5703C15.336 23.862 15.2501 24.2057 15.2501 24.6016H13.8047C13.8047 24.0234 13.9506 23.4974 14.2422 23.0234C14.5339 22.5495 14.9428 22.1719 15.4688 21.8906C16.0001 21.6094 16.6146 21.4688 17.3126 21.4688C18.0001 21.4688 18.6016 21.5911 19.1172 21.8359C19.6329 22.0755 20.0339 22.4349 20.3204 22.9141C20.6068 23.388 20.7501 23.9792 20.7501 24.6875C20.7501 24.974 20.6824 25.2812 20.5469 25.6094C20.4167 25.9323 20.211 26.2344 19.9297 26.5156C19.6537 26.7969 19.2943 27.0286 18.8516 27.2109C18.4089 27.388 17.8777 27.4766 17.2579 27.4766H16.0235V26.6016ZM16.0235 27.7891V26.9219H17.2579C17.9818 26.9219 18.5808 27.0078 19.0547 27.1797C19.5287 27.3516 19.9011 27.5807 20.1719 27.8672C20.448 28.1536 20.6407 28.4688 20.7501 28.8125C20.8646 29.151 20.9219 29.4896 20.9219 29.8281C20.9219 30.3594 20.8308 30.8307 20.6485 31.2422C20.4714 31.6536 20.2188 32.0026 19.8907 32.2891C19.5678 32.5755 19.1876 32.7917 18.7501 32.9375C18.3126 33.0833 17.836 33.1562 17.3204 33.1562C16.8256 33.1562 16.3594 33.0859 15.9219 32.9453C15.4896 32.8047 15.1068 32.6016 14.7735 32.3359C14.4402 32.0651 14.1797 31.7344 13.9922 31.3438C13.8047 30.9479 13.711 30.4974 13.711 29.9922H15.1563C15.1563 30.388 15.2422 30.7344 15.4141 31.0312C15.5912 31.3281 15.8412 31.5599 16.1641 31.7266C16.4922 31.888 16.8777 31.9688 17.3204 31.9688C17.7631 31.9688 18.1433 31.8932 18.461 31.7422C18.7839 31.5859 19.0313 31.3516 19.2032 31.0391C19.3803 30.7266 19.4688 30.3333 19.4688 29.8594C19.4688 29.3854 19.3699 28.9974 19.1719 28.6953C18.974 28.388 18.6928 28.1615 18.3282 28.0156C17.9688 27.8646 17.5443 27.7891 17.0547 27.7891H16.0235ZM30.3672 31.8125V33H22.9219V31.9609L26.6485 27.8125C27.1068 27.3021 27.461 26.8698 27.711 26.5156C27.9662 26.1562 28.1433 25.8359 28.2422 25.5547C28.3464 25.2682 28.3985 24.9766 28.3985 24.6797C28.3985 24.3047 28.3204 23.9661 28.1641 23.6641C28.0131 23.3568 27.7891 23.112 27.4922 22.9297C27.1954 22.7474 26.836 22.6562 26.4141 22.6562C25.9089 22.6562 25.487 22.7552 25.1485 22.9531C24.8152 23.1458 24.5652 23.4167 24.3985 23.7656C24.2318 24.1146 24.1485 24.5156 24.1485 24.9688H22.7032C22.7032 24.3281 22.8438 23.7422 23.1251 23.2109C23.4063 22.6797 23.823 22.2578 24.3751 21.9453C24.9271 21.6276 25.6068 21.4688 26.4141 21.4688C27.1329 21.4688 27.7475 21.5964 28.2579 21.8516C28.7683 22.1016 29.1589 22.4557 29.4297 22.9141C29.7058 23.3672 29.8438 23.8984 29.8438 24.5078C29.8438 24.8411 29.7865 25.1797 29.6719 25.5234C29.5626 25.862 29.4089 26.2005 29.211 26.5391C29.0183 26.8776 28.7917 27.2109 28.5313 27.5391C28.2761 27.8672 28.0027 28.1901 27.711 28.5078L24.6641 31.8125H30.3672ZM39.6016 29.1719V30.3594H31.3829V29.5078L36.4766 21.625H37.6563L36.3907 23.9062L33.0235 29.1719H39.6016ZM38.0157 21.625V33H36.5704V21.625H38.0157ZM41.0938 32.2344C41.0938 31.9896 41.1693 31.7839 41.3204 31.6172C41.4766 31.4453 41.7006 31.3594 41.9922 31.3594C42.2839 31.3594 42.5053 31.4453 42.6563 31.6172C42.8126 31.7839 42.8907 31.9896 42.8907 32.2344C42.8907 32.474 42.8126 32.6771 42.6563 32.8438C42.5053 33.0104 42.2839 33.0938 41.9922 33.0938C41.7006 33.0938 41.4766 33.0104 41.3204 32.8438C41.1693 32.6771 41.0938 32.474 41.0938 32.2344ZM52.2735 26.4062V28.1406C52.2735 29.0729 52.1902 29.8594 52.0235 30.5C51.8568 31.1406 51.6172 31.6562 51.3047 32.0469C50.9922 32.4375 50.6146 32.7214 50.1719 32.8984C49.7344 33.0703 49.2396 33.1562 48.6876 33.1562C48.2501 33.1562 47.8464 33.1016 47.4766 32.9922C47.1068 32.8828 46.7735 32.7083 46.4766 32.4688C46.185 32.224 45.935 31.9062 45.7266 31.5156C45.5183 31.125 45.3594 30.651 45.2501 30.0938C45.1407 29.5365 45.086 28.8854 45.086 28.1406V26.4062C45.086 25.474 45.1693 24.6927 45.336 24.0625C45.5079 23.4323 45.7501 22.9271 46.0626 22.5469C46.3751 22.1615 46.7501 21.8854 47.1876 21.7188C47.6303 21.5521 48.1251 21.4688 48.6719 21.4688C49.1146 21.4688 49.5209 21.5234 49.8907 21.6328C50.2657 21.737 50.599 21.9062 50.8907 22.1406C51.1824 22.3698 51.4297 22.6771 51.6329 23.0625C51.8412 23.4427 52.0001 23.9089 52.1094 24.4609C52.2188 25.013 52.2735 25.6615 52.2735 26.4062ZM50.8204 28.375V26.1641C50.8204 25.6536 50.7891 25.2057 50.7266 24.8203C50.6693 24.4297 50.5834 24.0964 50.4688 23.8203C50.3542 23.5443 50.2084 23.3203 50.0313 23.1484C49.8594 22.9766 49.6589 22.8516 49.4297 22.7734C49.2058 22.6901 48.9532 22.6484 48.6719 22.6484C48.3282 22.6484 48.0235 22.7135 47.7579 22.8438C47.4922 22.9688 47.2683 23.1693 47.086 23.4453C46.9089 23.7214 46.7735 24.0833 46.6797 24.5312C46.586 24.9792 46.5391 25.5234 46.5391 26.1641V28.375C46.5391 28.8854 46.5678 29.3359 46.6251 29.7266C46.6876 30.1172 46.7787 30.4557 46.8985 30.7422C47.0183 31.0234 47.1641 31.2552 47.336 31.4375C47.5079 31.6198 47.7058 31.7552 47.9297 31.8438C48.1589 31.9271 48.4115 31.9688 48.6876 31.9688C49.0417 31.9688 49.3516 31.901 49.6172 31.7656C49.8829 31.6302 50.1042 31.4193 50.2813 31.1328C50.4636 30.8411 50.599 30.4688 50.6876 30.0156C50.7761 29.5573 50.8204 29.0104 50.8204 28.375ZM61.2735 26.4062V28.1406C61.2735 29.0729 61.1902 29.8594 61.0235 30.5C60.8568 31.1406 60.6172 31.6562 60.3047 32.0469C59.9922 32.4375 59.6146 32.7214 59.1719 32.8984C58.7344 33.0703 58.2396 33.1562 57.6876 33.1562C57.2501 33.1562 56.8464 33.1016 56.4766 32.9922C56.1068 32.8828 55.7735 32.7083 55.4766 32.4688C55.185 32.224 54.935 31.9062 54.7266 31.5156C54.5183 31.125 54.3594 30.651 54.2501 30.0938C54.1407 29.5365 54.086 28.8854 54.086 28.1406V26.4062C54.086 25.474 54.1693 24.6927 54.336 24.0625C54.5079 23.4323 54.7501 22.9271 55.0626 22.5469C55.3751 22.1615 55.7501 21.8854 56.1876 21.7188C56.6303 21.5521 57.1251 21.4688 57.6719 21.4688C58.1146 21.4688 58.5209 21.5234 58.8907 21.6328C59.2657 21.737 59.599 21.9062 59.8907 22.1406C60.1824 22.3698 60.4297 22.6771 60.6329 23.0625C60.8412 23.4427 61.0001 23.9089 61.1094 24.4609C61.2188 25.013 61.2735 25.6615 61.2735 26.4062ZM59.8204 28.375V26.1641C59.8204 25.6536 59.7891 25.2057 59.7266 24.8203C59.6693 24.4297 59.5834 24.0964 59.4688 23.8203C59.3542 23.5443 59.2084 23.3203 59.0313 23.1484C58.8594 22.9766 58.6589 22.8516 58.4297 22.7734C58.2058 22.6901 57.9532 22.6484 57.6719 22.6484C57.3282 22.6484 57.0235 22.7135 56.7579 22.8438C56.4922 22.9688 56.2683 23.1693 56.086 23.4453C55.9089 23.7214 55.7735 24.0833 55.6797 24.5312C55.586 24.9792 55.5391 25.5234 55.5391 26.1641V28.375C55.5391 28.8854 55.5678 29.3359 55.6251 29.7266C55.6876 30.1172 55.7787 30.4557 55.8985 30.7422C56.0183 31.0234 56.1641 31.2552 56.336 31.4375C56.5079 31.6198 56.7058 31.7552 56.9297 31.8438C57.1589 31.9271 57.4115 31.9688 57.6876 31.9688C58.0417 31.9688 58.3516 31.901 58.6172 31.7656C58.8829 31.6302 59.1042 31.4193 59.2813 31.1328C59.4636 30.8411 59.599 30.4688 59.6876 30.0156C59.7761 29.5573 59.8204 29.0104 59.8204 28.375Z" fill="white"/>
<path d="M37.416 15H35.4824L35.4941 14.3848H37.416C38.0293 14.3848 38.5566 14.248 38.998 13.9746C39.4434 13.6973 39.7871 13.3145 40.0293 12.8262C40.2715 12.3379 40.3926 11.7715 40.3926 11.127V10.3301C40.3926 9.83789 40.3223 9.39258 40.1816 8.99414C40.0449 8.5957 39.8477 8.25586 39.5898 7.97461C39.332 7.68945 39.0234 7.4707 38.6641 7.31836C38.3086 7.16602 37.9102 7.08984 37.4688 7.08984H35.4473V6.46875H37.4688C38 6.46875 38.4863 6.56055 38.9277 6.74414C39.373 6.92383 39.7578 7.18555 40.082 7.5293C40.4102 7.86914 40.6621 8.27734 40.8379 8.75391C41.0176 9.23047 41.1074 9.76172 41.1074 10.3477V11.127C41.1074 11.7129 41.0176 12.2441 40.8379 12.7207C40.6621 13.1973 40.4102 13.6055 40.082 13.9453C39.7539 14.2852 39.3652 14.5469 38.916 14.7305C38.4668 14.9102 37.9668 15 37.416 15ZM35.8047 6.46875V15H35.084V6.46875H35.8047ZM45.2324 15.1172C44.8184 15.1172 44.4375 15.041 44.0898 14.8887C43.7461 14.7363 43.4453 14.5215 43.1875 14.2441C42.9336 13.9668 42.7363 13.6387 42.5957 13.2598C42.459 12.877 42.3906 12.459 42.3906 12.0059V11.7539C42.3906 11.2656 42.4629 10.8242 42.6074 10.4297C42.752 10.0352 42.9512 9.69727 43.2051 9.41602C43.459 9.13477 43.748 8.91992 44.0723 8.77148C44.4004 8.61914 44.7441 8.54297 45.1035 8.54297C45.5059 8.54297 45.8633 8.61523 46.1758 8.75977C46.4883 8.90039 46.75 9.10156 46.9609 9.36328C47.1758 9.62109 47.3379 9.92773 47.4473 10.2832C47.5566 10.6348 47.6113 11.0234 47.6113 11.4492V11.877H42.8125V11.2793H46.9141V11.1973C46.9062 10.8418 46.834 10.5098 46.6973 10.2012C46.5645 9.88867 46.3652 9.63477 46.0996 9.43945C45.834 9.24414 45.502 9.14648 45.1035 9.14648C44.8066 9.14648 44.5332 9.20898 44.2832 9.33398C44.0371 9.45898 43.8242 9.63867 43.6445 9.87305C43.4688 10.1035 43.332 10.3789 43.2344 10.6992C43.1406 11.0156 43.0938 11.3672 43.0938 11.7539V12.0059C43.0938 12.3574 43.1445 12.6855 43.2461 12.9902C43.3516 13.291 43.5 13.5566 43.6914 13.7871C43.8867 14.0176 44.1172 14.1973 44.3828 14.3262C44.6484 14.4551 44.9414 14.5195 45.2617 14.5195C45.6367 14.5195 45.9688 14.4512 46.2578 14.3145C46.5469 14.1738 46.8066 13.9531 47.0371 13.6523L47.4766 13.9922C47.3398 14.1953 47.168 14.3828 46.9609 14.5547C46.7578 14.7266 46.5137 14.8633 46.2285 14.9648C45.9434 15.0664 45.6113 15.1172 45.2324 15.1172ZM48.9824 6H49.6855V13.7695L49.6387 15H48.9824V6ZM54.0977 11.7715V11.8945C54.0977 12.3672 54.043 12.8008 53.9336 13.1953C53.8242 13.5898 53.666 13.9316 53.459 14.2207C53.252 14.5059 52.998 14.7266 52.6973 14.8828C52.4004 15.0391 52.0586 15.1172 51.6719 15.1172C51.293 15.1172 50.957 15.0586 50.6641 14.9414C50.3711 14.8203 50.1211 14.6504 49.9141 14.4316C49.707 14.209 49.541 13.9492 49.416 13.6523C49.291 13.3516 49.2031 13.0215 49.1523 12.6621V11.0977C49.2109 10.7148 49.3047 10.3672 49.4336 10.0547C49.5625 9.74219 49.7285 9.47266 49.9316 9.24609C50.1387 9.01953 50.3848 8.8457 50.6699 8.72461C50.959 8.60352 51.2891 8.54297 51.6602 8.54297C52.0469 8.54297 52.3906 8.61914 52.6914 8.77148C52.9961 8.91992 53.252 9.13672 53.459 9.42188C53.666 9.70312 53.8242 10.043 53.9336 10.4414C54.043 10.8359 54.0977 11.2793 54.0977 11.7715ZM53.3887 11.8945V11.7715C53.3887 11.4004 53.3535 11.0566 53.2832 10.7402C53.2129 10.4238 53.1016 10.1484 52.9492 9.91406C52.8008 9.67578 52.6094 9.49023 52.375 9.35742C52.1406 9.22461 51.8594 9.1582 51.5312 9.1582C51.1953 9.1582 50.9082 9.21484 50.6699 9.32812C50.4355 9.4375 50.2402 9.58398 50.084 9.76758C49.9316 9.94727 49.8105 10.1445 49.7207 10.3594C49.6309 10.5742 49.5645 10.7852 49.5215 10.9922V12.8145C49.5879 13.1074 49.7031 13.3828 49.8672 13.6406C50.0312 13.8984 50.252 14.1074 50.5293 14.2676C50.8066 14.4238 51.1445 14.502 51.543 14.502C51.8633 14.502 52.1387 14.4355 52.3691 14.3027C52.6035 14.1699 52.7949 13.9863 52.9434 13.752C53.0957 13.5176 53.207 13.2422 53.2773 12.9258C53.3516 12.6094 53.3887 12.2656 53.3887 11.8945ZM58.0469 8.66016V9.23438H54.8711V8.66016H58.0469ZM56.0371 7.03125H56.7344V13.459C56.7344 13.752 56.7734 13.9727 56.8516 14.1211C56.9297 14.2695 57.0312 14.3691 57.1562 14.4199C57.2812 14.4707 57.416 14.4961 57.5605 14.4961C57.666 14.4961 57.7676 14.4902 57.8652 14.4785C57.9629 14.4629 58.0508 14.4473 58.1289 14.4316L58.1582 15.0234C58.0723 15.0508 57.9609 15.0723 57.8242 15.0879C57.6875 15.1074 57.5508 15.1172 57.4141 15.1172C57.1445 15.1172 56.9062 15.0684 56.6992 14.9707C56.4922 14.8691 56.3301 14.6973 56.2129 14.4551C56.0957 14.209 56.0371 13.875 56.0371 13.4531V7.03125ZM59.3359 14.5723C59.3359 14.4355 59.3789 14.3203 59.4648 14.2266C59.5547 14.1289 59.6758 14.0801 59.8281 14.0801C59.9844 14.0801 60.1074 14.127 60.1973 14.2207C60.2871 14.3145 60.332 14.4316 60.332 14.5723C60.332 14.7051 60.2871 14.8184 60.1973 14.9121C60.1074 15.0059 59.9844 15.0527 59.8281 15.0527C59.6758 15.0527 59.5547 15.0059 59.4648 14.9121C59.3789 14.8184 59.3359 14.7051 59.3359 14.5723ZM59.3535 9.16406C59.3535 9.02734 59.3965 8.91211 59.4824 8.81836C59.5723 8.7207 59.6934 8.67188 59.8457 8.67188C60.002 8.67188 60.125 8.71875 60.2148 8.8125C60.3047 8.90625 60.3496 9.02344 60.3496 9.16406C60.3496 9.29688 60.3047 9.41016 60.2148 9.50391C60.125 9.59766 60.002 9.64453 59.8457 9.64453C59.6934 9.64453 59.5723 9.59766 59.4824 9.50391C59.3965 9.41016 59.3535 9.29688 59.3535 9.16406Z" fill="white"/>
<path d="M70.7318 25.9219L68.3669 28.7598C67.8241 29.4111 68.2873 30.4 69.1351 30.4H73.865C74.7129 30.4 75.176 29.4111 74.6332 28.7598L72.2683 25.9219C71.8685 25.4421 71.1316 25.4421 70.7318 25.9219Z" fill="white"/>
</svg>
